<svg viewBox="0 0 1920 1080" xmlns="http://www.w3.org/2000/svg">
  <defs>
    <linearGradient id="skyGradient" x1="0%" y1="0%" x2="0%" y2="100%">
      <stop offset="0%" style="stop-color:#87CEEB;stop-opacity:1" />
      <stop offset="70%" style="stop-color:#E0F6FF;stop-opacity:1" />
      <stop offset="100%" style="stop-color:#F0F8FF;stop-opacity:1" />
    </linearGradient>
    <linearGradient id="lakeGradient" x1="0%" y1="0%" x2="0%" y2="100%">
      <stop offset="0%" style="stop-color:#4682B4;stop-opacity:1" />
      <stop offset="50%" style="stop-color:#5F9EA0;stop-opacity:1" />
      <stop offset="100%" style="stop-color:#2F4F4F;stop-opacity:1" />
    </linearGradient>
    <linearGradient id="mountainGradient" x1="0%" y1="0%" x2="0%" y2="100%">
      <stop offset="0%" style="stop-color:#8FBC8F;stop-opacity:1" />
      <stop offset="100%" style="stop-color:#2F4F2F;stop-opacity:1" />
    </linearGradient>
    <radialGradient id="sunGradient" cx="50%" cy="50%" r="50%">
      <stop offset="0%" style="stop-color:#FFD700;stop-opacity:1" />
      <stop offset="100%" style="stop-color:#FFA500;stop-opacity:0.8" />
    </radialGradient>
  </defs>
  
  <!-- Sky Background -->
  <rect width="1920" height="700" fill="url(#skyGradient)"/>
  
  <!-- Sun -->
  <circle cx="1600" cy="150" r="80" fill="url(#sunGradient)"/>
  
  <!-- Mountains in Background -->
  <path d="M0,300 L200,180 L400,220 L600,160 L800,200 L1000,140 L1200,180 L1400,120 L1600,160 L1800,100 L1920,140 L1920,700 L0,700 Z" fill="url(#mountainGradient)" opacity="0.7"/>
  
  <!-- Trees on Hills -->
  <g opacity="0.6">
    <ellipse cx="150" cy="200" rx="15" ry="40" fill="#228B22"/>
    <ellipse cx="180" cy="210" rx="12" ry="35" fill="#32CD32"/>
    <ellipse cx="350" cy="190" rx="18" ry="45" fill="#228B22"/>
    <ellipse cx="550" cy="170" rx="16" ry="42" fill="#32CD32"/>
    <ellipse cx="750" cy="185" rx="14" ry="38" fill="#228B22"/>
    <ellipse cx="950" cy="165" rx="20" ry="48" fill="#32CD32"/>
    <ellipse cx="1150" cy="175" rx="15" ry="40" fill="#228B22"/>
    <ellipse cx="1350" cy="155" rx="17" ry="44" fill="#32CD32"/>
    <ellipse cx="1550" cy="165" rx="16" ry="42" fill="#228B22"/>
    <ellipse cx="1750" cy="145" rx="18" ry="46" fill="#32CD32"/>
  </g>
  
  <!-- Lake -->
  <ellipse cx="960" cy="580" rx="800" ry="200" fill="url(#lakeGradient)"/>
  
  <!-- Lake Reflections -->
  <ellipse cx="960" cy="600" rx="750" ry="150" fill="#87CEEB" opacity="0.3"/>
  
  <!-- Shoreline -->
  <path d="M100,500 Q300,480 500,490 Q700,485 900,495 Q1100,488 1300,492 Q1500,487 1700,495 Q1800,498 1920,505 L1920,1080 L0,1080 L0,520 Q50,510 100,500 Z" fill="#8FBC8F"/>
  
  <!-- Grass Texture -->
  <rect x="0" y="500" width="1920" height="580" fill="#9ACD32" opacity="0.4"/>
  
  <!-- Yoga Mats Layout -->
  <g id="yogaMats">
    <!-- Mat 1 - Purple -->
    <rect x="400" y="650" width="180" height="60" rx="8" fill="#8A2BE2" opacity="0.9"/>
    <!-- Mat 2 - Blue -->
    <rect x="620" y="640" width="180" height="60" rx="8" fill="#4169E1" opacity="0.9"/>
    <!-- Mat 3 - Green -->
    <rect x="840" y="655" width="180" height="60" rx="8" fill="#32CD32" opacity="0.9"/>
    <!-- Mat 4 - Orange -->
    <rect x="1060" y="645" width="180" height="60" rx="8" fill="#FF8C00" opacity="0.9"/>
    <!-- Mat 5 - Pink -->
    <rect x="1280" y="660" width="180" height="60" rx="8" fill="#FF69B4" opacity="0.9"/>
  </g>
  
  <!-- People on Mats (Simple Silhouettes) -->
  <g id="yogaPeople">
    <!-- Person 1 - Seated Meditation -->
    <ellipse cx="490" cy="665" rx="20" ry="12" fill="#4A4A4A"/>
    <circle cx="490" cy="645" r="8" fill="#8B4513"/>
    
    <!-- Person 2 - Warrior Pose -->
    <ellipse cx="710" cy="655" rx="15" ry="20" fill="#4A4A4A"/>
    <circle cx="710" cy="630" r="8" fill="#8B4513"/>
    <ellipse cx="720" cy="665" rx="25" ry="8" fill="#4A4A4A"/>
    
    <!-- Person 3 - Child's Pose -->
    <ellipse cx="930" cy="675" rx="25" ry="15" fill="#4A4A4A"/>
    <circle cx="930" cy="660" r="8" fill="#8B4513"/>
    
    <!-- Person 4 - Standing Forward Fold -->
    <ellipse cx="1150" cy="665" rx="12" ry="25" fill="#4A4A4A"/>
    <circle cx="1150" cy="635" r="8" fill="#8B4513"/>
    
    <!-- Person 5 - Tree Pose -->
    <ellipse cx="1370" cy="670" rx="8" ry="22" fill="#4A4A4A"/>
    <circle cx="1370" cy="645" r="8" fill="#8B4513"/>
    <ellipse cx="1380" cy="660" rx="15" ry="8" fill="#4A4A4A"/>
  </g>
  
  <!-- Water Bottles -->
  <g id="waterBottles">
    <rect x="580" y="680" width="8" height="25" rx="4" fill="#87CEEB" opacity="0.8"/>
    <rect x="800" y="685" width="8" height="25" rx="4" fill="#87CEEB" opacity="0.8"/>
    <rect x="1020" y="675" width="8" height="25" rx="4" fill="#87CEEB" opacity="0.8"/>
    <rect x="1240" y="690" width="8" height="25" rx="4" fill="#87CEEB" opacity="0.8"/>
    <rect x="1460" y="685" width="8" height="25" rx="4" fill="#87CEEB" opacity="0.8"/>
  </g>
  
  <!-- Towels -->
  <g id="towels">
    <rect x="360" y="720" width="40" height="20" rx="3" fill="#FFB6C1" opacity="0.7"/>
    <rect x="580" y="710" width="40" height="20" rx="3" fill="#98FB98" opacity="0.7"/>
    <rect x="800" y="725" width="40" height="20" rx="3" fill="#F0E68C" opacity="0.7"/>
    <rect x="1020" y="715" width="40" height="20" rx="3" fill="#DDA0DD" opacity="0.7"/>
    <rect x="1320" y="730" width="40" height="20" rx="3" fill="#F4A460" opacity="0.7"/>
  </g>
  
  <!-- Instructor Platform -->
  <rect x="200" y="600" width="120" height="80" rx="10" fill="#8B4513" opacity="0.6"/>
  
  <!-- Instructor -->
  <ellipse cx="260" cy="625" rx="12" ry="25" fill="#4A4A4A"/>
  <circle cx="260" cy="600" r="10" fill="#8B4513"/>
  <ellipse cx="275" cy="615" rx="20" ry="8" fill="#4A4A4A"/>
  
  <!-- Nearby Trees -->
  <g id="nearbyTrees">
    <ellipse cx="80" cy="550" rx="25" ry="60" fill="#228B22"/>
    <rect x="70" y="580" width="20" height="40" fill="#8B4513"/>
    
    <ellipse cx="1800" cy="520" rx="30" ry="70" fill="#32CD32"/>
    <rect x="1788" y="560" width="24" height="50" fill="#8B4513"/>
    
    <ellipse cx="1680" cy="540" rx="28" ry="65" fill="#228B22"/>
    <rect x="1670" y="575" width="20" height="45" fill="#8B4513"/>
  </g>
  
  <!-- Clouds -->
  <g id="clouds" opacity="0.7">
    <ellipse cx="300" cy="100" rx="60" ry="25" fill="white"/>
    <ellipse cx="280" cy="90" rx="45" ry="20" fill="white"/>
    <ellipse cx="320" cy="85" rx="40" ry="18" fill="white"/>
    
    <ellipse cx="800" cy="80" rx="70" ry="30" fill="white"/>
    <ellipse cx="780" cy="70" rx="50" ry="22" fill="white"/>
    <ellipse cx="825" cy="65" rx="45" ry="20" fill="white"/>
    
    <ellipse cx="1400" cy="120" rx="55" ry="28" fill="white"/>
    <ellipse cx="1380" cy="110" rx="40" ry="20" fill="white"/>
    <ellipse cx="1420" cy="105" rx="35" ry="18" fill="white"/>
  </g>
  
  <!-- Birds -->
  <g id="birds" opacity="0.6">
    <path d="M500,200 Q505,195 510,200 Q515,195 520,200" stroke="#333" stroke-width="2" fill="none"/>
    <path d="M700,180 Q705,175 710,180 Q715,175 720,180" stroke="#333" stroke-width="2" fill="none"/>
    <path d="M1200,160 Q1205,155 1210,160 Q1215,155 1220,160" stroke="#333" stroke-width="2" fill="none"/>
  </g>
  
  <!-- Ground Details -->
  <g id="groundDetails">
    <!-- Small rocks -->
    <ellipse cx="150" cy="750" rx="8" ry="5" fill="#696969"/>
    <ellipse cx="320" cy="780" rx="6" ry="4" fill="#696969"/>
    <ellipse cx="580" cy="770" rx="7" ry="5" fill="#696969"/>
    <ellipse cx="890" cy="790" rx="9" ry="6" fill="#696969"/>
    <ellipse cx="1200" cy="760" rx="8" ry="5" fill="#696969"/>
    <ellipse cx="1450" cy="785" rx="7" ry="4" fill="#696969"/>
    <ellipse cx="1650" cy="775" rx="6" ry="4" fill="#696969"/>
    
    <!-- Grass patches -->
    <ellipse cx="250" cy="730" rx="15" ry="8" fill="#228B22" opacity="0.6"/>
    <ellipse cx="450" cy="740" rx="12" ry="6" fill="#228B22" opacity="0.6"/>
    <ellipse cx="750" cy="750" rx="18" ry="9" fill="#228B22" opacity="0.6"/>
    <ellipse cx="1050" cy="735" rx="14" ry="7" fill="#228B22" opacity="0.6"/>
    <ellipse cx="1350" cy="745" rx="16" ry="8" fill="#228B22" opacity="0.6"/>
    <ellipse cx="1600" cy="740" rx="13" ry="6" fill="#228B22" opacity="0.6"/>
  </g>
</svg>