<svg viewBox="0 0 800 500" xmlns="http://www.w3.org/2000/svg">
  <!-- Background gradient -->
  <defs>
    <linearGradient id="skyGradient" x1="0%" y1="0%" x2="0%" y2="100%">
      <stop offset="0%" style="stop-color:#1e3a8a;stop-opacity:0.8" />
      <stop offset="100%" style="stop-color:#3b82f6;stop-opacity:0.6" />
    </linearGradient>
    <linearGradient id="waterGradient" x1="0%" y1="0%" x2="0%" y2="100%">
      <stop offset="0%" style="stop-color:#3b82f6;stop-opacity:0.7" />
      <stop offset="100%" style="stop-color:#1e40af;stop-opacity:0.9" />
    </linearGradient>
  </defs>
  
  <!-- Sky and mountains -->
  <rect width="800" height="250" fill="url(#skyGradient)" />
  
  <!-- Mountain silhouettes -->
  <polygon points="0,200 150,120 280,160 400,100 550,140 700,80 800,120 800,250 0,250" fill="#1e40af" opacity="0.4" />
  <polygon points="0,220 100,180 200,200 350,150 500,180 650,140 800,170 800,250 0,250" fill="#1e3a8a" opacity="0.3" />
  
  <!-- Water/lake -->
  <rect x="0" y="250" width="800" height="100" fill="url(#waterGradient)" />
  
  <!-- Ground -->
  <rect x="0" y="350" width="800" height="150" fill="#22c55e" opacity="0.6" />
  
  <!-- Yoga mat -->
  <rect x="320" y="380" width="120" height="60" fill="#ddd6fe" stroke="#5b21b6" stroke-width="3" rx="5" />
  
  <!-- Central yoga figure (warrior pose) -->
  <g transform="translate(380, 320)">
    <!-- Body -->
    <ellipse cx="0" cy="35" rx="12" ry="25" fill="#3b82f6" stroke="#1e40af" stroke-width="2" />
    <!-- Head -->
    <circle cx="0" cy="0" r="12" fill="#60a5fa" stroke="#1e40af" stroke-width="2" />
    <!-- Extended arms -->
    <line x1="-35" y1="20" x2="35" y2="20" stroke="#1e40af" stroke-width="4" stroke-linecap="round" />
    <!-- Legs in warrior pose -->
    <line x1="-8" y1="55" x2="-25" y2="85" stroke="#1e40af" stroke-width="4" stroke-linecap="round" />
    <line x1="8" y1="55" x2="25" y2="85" stroke="#1e40af" stroke-width="4" stroke-linecap="round" />
    <!-- Hair -->
    <path d="M -8,-8 Q -15,-12 -12,-18 Q -8,-15 -4,-18 Q 0,-15 4,-18 Q 8,-15 12,-18 Q 15,-12 8,-8" fill="#1e3a8a" />
  </g>
  
  <!-- Push-up figure (left side) -->
  <g transform="translate(200, 400)">
    <!-- Body in plank position -->
    <ellipse cx="0" cy="0" rx="25" ry="8" fill="#3b82f6" stroke="#1e40af" stroke-width="2" />
    <!-- Head -->
    <circle cx="-20" cy="-5" r="8" fill="#60a5fa" stroke="#1e40af" stroke-width="2" />
    <!-- Arms -->
    <line x1="-15" y1="-8" x2="-15" y2="15" stroke="#1e40af" stroke-width="3" stroke-linecap="round" />
    <line x1="15" y1="-8" x2="15" y2="15" stroke="#1e40af" stroke-width="3" stroke-linecap="round" />
    <!-- Legs -->
    <line x1="20" y1="0" x2="35" y2="0" stroke="#1e40af" stroke-width="4" stroke-linecap="round" />
  </g>
  
  <!-- Running figure (background left) -->
  <g transform="translate(100, 320)">
    <!-- Body -->
    <ellipse cx="0" cy="20" rx="8" ry="20" fill="#3b82f6" stroke="#1e40af" stroke-width="2" />
    <!-- Head -->
    <circle cx="0" cy="0" r="8" fill="#60a5fa" stroke="#1e40af" stroke-width="2" />
    <!-- Running arms -->
    <line x1="-5" y1="15" x2="-15" y2="5" stroke="#1e40af" stroke-width="3" stroke-linecap="round" />
    <line x1="5" y1="15" x2="15" y2="25" stroke="#1e40af" stroke-width="3" stroke-linecap="round" />
    <!-- Running legs -->
    <line x1="-3" y1="35" x2="-8" y2="50" stroke="#1e40af" stroke-width="3" stroke-linecap="round" />
    <line x1="3" y1="35" x2="12" y2="45" stroke="#1e40af" stroke-width="3" stroke-linecap="round" />
  </g>
  
  <!-- Older man doing lunges (right side) -->
  <g transform="translate(600, 350)">
    <!-- Body -->
    <ellipse cx="0" cy="20" rx="10" ry="18" fill="#3b82f6" stroke="#1e40af" stroke-width="2" />
    <!-- Head -->
    <circle cx="0" cy="0" r="10" fill="#60a5fa" stroke="#1e40af" stroke-width="2" />
    <!-- Gray hair -->
    <path d="M -6,-6 Q -10,-10 -6,-14 Q 0,-12 6,-14 Q 10,-10 6,-6" fill="#6b7280" />
    <!-- Arms -->
    <line x1="-8" y1="15" x2="-18" y2="25" stroke="#1e40af" stroke-width="3" stroke-linecap="round" />
    <line x1="8" y1="15" x2="18" y2="25" stroke="#1e40af" stroke-width="3" stroke-linecap="round" />
    <!-- Lunge position legs -->
    <line x1="-5" y1="35" x2="-5" y2="55" stroke="#1e40af" stroke-width="4" stroke-linecap="round" />
    <line x1="5" y1="35" x2="20" y2="50" stroke="#1e40af" stroke-width="4" stroke-linecap="round" />
  </g>
  
  <!-- Fitness equipment and fruits -->
  <g transform="translate(520, 420)">
    <!-- Water bottle -->
    <rect x="0" y="0" width="8" height="20" fill="#ddd6fe" stroke="#5b21b6" stroke-width="2" rx="2" />
    <rect x="-1" y="-2" width="10" height="4" fill="#5b21b6" rx="2" />
    
    <!-- Banana -->
    <path d="M 15,10 Q 25,5 35,8 Q 32,12 30,15 Q 25,18 20,15 Q 15,12 15,10" fill="#fbbf24" stroke="#f59e0b" stroke-width="2" />
    
    <!-- Apple -->
    <circle cx="45" cy="12" r="8" fill="#ef4444" stroke="#dc2626" stroke-width="2" />
    <path d="M 45,4 Q 47,2 49,4" stroke="#22c55e" stroke-width="2" fill="none" />
    
    <!-- Small weights -->
    <rect x="60" y="8" width="15" height="8" fill="#6b7280" stroke="#374151" stroke-width="2" rx="2" />
    <circle cx="58" cy="12" r="4" fill="#6b7280" stroke="#374151" stroke-width="2" />
    <circle cx="77" cy="12" r="4" fill="#6b7280" stroke="#374151" stroke-width="2" />
  </g>
  
  <!-- Decorative elements -->
  <!-- Sun reflection on water -->
  <ellipse cx="400" cy="275" rx="30" ry="8" fill="#fbbf24" opacity="0.6" />
  
  <!-- Some grass details -->
  <g opacity="0.7">
    <line x1="150" y1="450" x2="155" y2="430" stroke="#16a34a" stroke-width="2" />
    <line x1="250" y1="460" x2="255" y2="440" stroke="#16a34a" stroke-width="2" />
    <line x1="550" y1="455" x2="555" y2="435" stroke="#16a34a" stroke-width="2" />
    <line x1="680" y1="450" x2="685" y2="430" stroke="#16a34a" stroke-width="2" />
  </g>
</svg>