<svg viewBox="0 0 1200 800" xmlns="http://www.w3.org/2000/svg">
  <defs>
    <linearGradient id="skyGradient" x1="0%" y1="0%" x2="0%" y2="100%">
      <stop offset="0%" style="stop-color:#E8F4F8;stop-opacity:1" />
      <stop offset="100%" style="stop-color:#F0F9FF;stop-opacity:1" />
    </linearGradient>
    <linearGradient id="groundGradient" x1="0%" y1="0%" x2="0%" y2="100%">
      <stop offset="0%" style="stop-color:#F8FAFC;stop-opacity:1" />
      <stop offset="100%" style="stop-color:#E2E8F0;stop-opacity:1" />
    </linearGradient>
  </defs>
  
  <!-- Background -->
  <rect width="1200" height="800" fill="url(#skyGradient)"/>
  
  <!-- Ground -->
  <ellipse cx="600" cy="750" rx="600" ry="100" fill="url(#groundGradient)" opacity="0.6"/>
  
  <!-- Background geometric shapes -->
  <circle cx="100" cy="150" r="80" fill="#1E3A8A" opacity="0.1"/>
  <circle cx="1100" cy="200" r="60" fill="#3B82F6" opacity="0.15"/>
  <circle cx="200" cy="600" r="40" fill="#60A5FA" opacity="0.2"/>
  <circle cx="1000" cy="650" r="70" fill="#1E3A8A" opacity="0.1"/>
  
  <!-- Central figures representing wellness journey -->
  <!-- Person 1: Yoga/Mindfulness (left) -->
  <g transform="translate(200, 300)">
    <!-- Body -->
    <ellipse cx="0" cy="80" rx="25" ry="60" fill="#1E3A8A"/>
    <!-- Head -->
    <circle cx="0" cy="0" r="25" fill="#F3F4F6"/>
    <!-- Arms in yoga pose -->
    <ellipse cx="-35" cy="45" rx="15" ry="35" fill="#1E3A8A" transform="rotate(-30)"/>
    <ellipse cx="35" cy="45" rx="15" ry="35" fill="#1E3A8A" transform="rotate(30)"/>
    <!-- Legs -->
    <ellipse cx="-15" cy="130" rx="12" ry="30" fill="#1E3A8A"/>
    <ellipse cx="15" cy="130" rx="12" ry="30" fill="#1E3A8A"/>
    <!-- Yoga mat -->
    <rect x="-40" y="150" width="80" height="8" rx="4" fill="#60A5FA"/>
  </g>
  
  <!-- Person 2: Strength Training (center-left) -->
  <g transform="translate(400, 320)">
    <!-- Body -->
    <ellipse cx="0" cy="70" rx="28" ry="55" fill="#1E3A8A"/>
    <!-- Head -->
    <circle cx="0" cy="0" r="22" fill="#F3F4F6"/>
    <!-- Arms holding weights -->
    <ellipse cx="-40" cy="50" rx="12" ry="25" fill="#1E3A8A"/>
    <ellipse cx="40" cy="50" rx="12" ry="25" fill="#1E3A8A"/>
    <!-- Dumbbells -->
    <circle cx="-50" cy="35" r="8" fill="#374151"/>
    <circle cx="50" cy="35" r="8" fill="#374151"/>
    <!-- Legs -->
    <ellipse cx="-12" cy="120" rx="12" ry="28" fill="#1E3A8A"/>
    <ellipse cx="12" cy="120" rx="12" ry="28" fill="#1E3A8A"/>
  </g>
  
  <!-- Person 3: Cardio/Running (center-right) -->
  <g transform="translate(700, 350)">
    <!-- Body in motion -->
    <ellipse cx="0" cy="60" rx="22" ry="50" fill="#1E3A8A" transform="rotate(10)"/>
    <!-- Head -->
    <circle cx="0" cy="0" r="20" fill="#F3F4F6"/>
    <!-- Arms in running motion -->
    <ellipse cx="-25" cy="40" rx="10" ry="30" fill="#1E3A8A" transform="rotate(-45)"/>
    <ellipse cx="25" cy="40" rx="10" ry="30" fill="#1E3A8A" transform="rotate(45)"/>
    <!-- Legs in running stride -->
    <ellipse cx="-10" cy="105" rx="10" ry="25" fill="#1E3A8A" transform="rotate(-20)"/>
    <ellipse cx="15" cy="110" rx="10" ry="25" fill="#1E3A8A" transform="rotate(20)"/>
    <!-- Motion lines -->
    <path d="M -60 30 Q -40 35 -30 30" stroke="#60A5FA" stroke-width="2" fill="none" opacity="0.6"/>
    <path d="M -55 45 Q -35 50 -25 45" stroke="#60A5FA" stroke-width="2" fill="none" opacity="0.6"/>
  </g>
  
  <!-- Person 4: Nutrition/Healthy Eating (right) -->
  <g transform="translate(900, 380)">
    <!-- Body -->
    <ellipse cx="0" cy="65" rx="24" ry="50" fill="#1E3A8A"/>
    <!-- Head -->
    <circle cx="0" cy="0" r="22" fill="#F3F4F6"/>
    <!-- Arms -->
    <ellipse cx="-20" cy="45" rx="10" ry="25" fill="#1E3A8A"/>
    <ellipse cx="20" cy="45" rx="10" ry="25" fill="#1E3A8A"/>
    <!-- Legs -->
    <ellipse cx="-10" cy="110" rx="10" ry="25" fill="#1E3A8A"/>
    <ellipse cx="10" cy="110" rx="10" ry="25" fill="#1E3A8A"/>
    <!-- Healthy food items around -->
    <circle cx="-35" cy="20" r="6" fill="#10B981"/> <!-- Apple -->
    <rect x="25" y="15" width="12" height="8" rx="2" fill="#F59E0B"/> <!-- Carrot -->
    <circle cx="-30" cy="80" r="5" fill="#EF4444"/> <!-- Berry -->
  </g>
  
  <!-- Four Pillars Icons (floating above the scene) -->
  <!-- Pillar 1: Mindfulness (Flower icon) -->
  <g transform="translate(150, 100)">
    <circle cx="0" cy="0" r="35" fill="#FFFFFF" opacity="0.9" stroke="#1E3A8A" stroke-width="2"/>
    <!-- Flower petals -->
    <g stroke="#3B82F6" stroke-width="2" fill="none">
      <circle cx="0" cy="-15" r="8"/>
      <circle cx="12" cy="-8" r="8"/>
      <circle cx="12" cy="8" r="8"/>
      <circle cx="0" cy="15" r="8"/>
      <circle cx="-12" cy="8" r="8"/>
      <circle cx="-12" cy="-8" r="8"/>
      <circle cx="0" cy="0" r="4" fill="#3B82F6"/>
    </g>
  </g>
  
  <!-- Pillar 2: Strength (Dumbbell icon) -->
  <g transform="translate(400, 80)">
    <circle cx="0" cy="0" r="35" fill="#FFFFFF" opacity="0.9" stroke="#1E3A8A" stroke-width="2"/>
    <!-- Dumbbell -->
    <g stroke="#3B82F6" stroke-width="2" fill="none">
      <rect x="-20" y="-3" width="40" height="6" rx="3"/>
      <rect x="-22" y="-8" width="6" height="16" rx="3"/>
      <rect x="16" y="-8" width="6" height="16" rx="3"/>
    </g>
  </g>
  
  <!-- Pillar 3: Cardio (Activity icon) -->
  <g transform="translate(750, 60)">
    <circle cx="0" cy="0" r="35" fill="#FFFFFF" opacity="0.9" stroke="#1E3A8A" stroke-width="2"/>
    <!-- Heart rate line -->
    <path d="M -20 0 L -10 0 L -5 -15 L 0 15 L 5 -10 L 10 5 L 20 0" stroke="#3B82F6" stroke-width="2" fill="none"/>
  </g>
  
  <!-- Pillar 4: Nutrition (Apple icon) -->
  <g transform="translate(1000, 90)">
    <circle cx="0" cy="0" r="35" fill="#FFFFFF" opacity="0.9" stroke="#1E3A8A" stroke-width="2"/>
    <!-- Apple outline -->
    <g stroke="#3B82F6" stroke-width="2" fill="none">
      <path d="M -8 -5 Q -12 -15 -5 -18 Q 0 -20 5 -18 Q 12 -15 8 -5 Q 10 0 8 10 Q 5 18 0 18 Q -5 18 -8 10 Q -10 0 -8 -5"/>
      <path d="M 0 -18 Q 0 -25 5 -22" stroke="#3B82F6" stroke-width="2"/>
    </g>
  </g>
  
  <!-- Connecting flow lines between pillars -->
  <path d="M 185 115 Q 300 90 365 95" stroke="#60A5FA" stroke-width="1" fill="none" opacity="0.4" stroke-dasharray="5,5"/>
  <path d="M 435 95 Q 600 70 715 75" stroke="#60A5FA" stroke-width="1" fill="none" opacity="0.4" stroke-dasharray="5,5"/>
  <path d="M 785 75 Q 900 80 965 105" stroke="#60A5FA" stroke-width="1" fill="none" opacity="0.4" stroke-dasharray="5,5"/>
  
  <!-- Inspirational elements -->
  <!-- Growth/transformation spiral -->
  <g transform="translate(500, 150)" opacity="0.3">
    <path d="M 0 0 Q 10 -10 20 0 Q 30 20 20 40 Q -10 50 -30 40 Q -50 10 -30 -20 Q 10 -40 50 -20" 
          stroke="#3B82F6" stroke-width="2" fill="none"/>
  </g>
  
  <!-- Wellness energy waves -->
  <g opacity="0.2">
    <path d="M 0 400 Q 200 380 400 400 Q 600 420 800 400 Q 1000 380 1200 400" 
          stroke="#60A5FA" stroke-width="2" fill="none"/>
    <path d="M 0 420 Q 200 400 400 420 Q 600 440 800 420 Q 1000 400 1200 420" 
          stroke="#3B82F6" stroke-width="1" fill="none"/>
  </g>
  
  <!-- Community connection dots -->
  <g opacity="0.4">
    <circle cx="300" cy="250" r="3" fill="#3B82F6"/>
    <circle cx="600" cy="200" r="3" fill="#3B82F6"/>
    <circle cx="800" cy="280" r="3" fill="#3B82F6"/>
    <line x1="300" y1="250" x2="600" y2="200" stroke="#60A5FA" stroke-width="1"/>
    <line x1="600" y1="200" x2="800" y2="280" stroke="#60A5FA" stroke-width="1"/>
  </g>
</svg>