<svg width="1200" height="600" viewBox="0 0 1200 600" xmlns="http://www.w3.org/2000/svg">
  <!-- Solid Background - Navy gradient -->
  <defs>
    <linearGradient id="bgGradient" x1="0%" y1="0%" x2="100%" y2="100%">
      <stop offset="0%" style="stop-color:#1e3a8a;stop-opacity:1" />
      <stop offset="100%" style="stop-color:#3b82f6;stop-opacity:1" />
    </linearGradient>
    <linearGradient id="mountainGradient" x1="0%" y1="0%" x2="0%" y2="100%">
      <stop offset="0%" style="stop-color:#64748b;stop-opacity:1" />
      <stop offset="100%" style="stop-color:#475569;stop-opacity:1" />
    </linearGradient>
  </defs>
  
  <!-- Background -->
  <rect width="1200" height="600" fill="url(#bgGradient)"/>
  
  <!-- Mountain silhouettes -->
  <polygon points="0,400 200,200 400,300 600,150 800,250 1000,180 1200,220 1200,600 0,600" fill="url(#mountainGradient)" opacity="0.6"/>
  <polygon points="0,450 150,300 350,380 550,250 750,320 950,280 1200,300 1200,600 0,600" fill="#475569" opacity="0.4"/>
  
  <!-- Water/lake reflection -->
  <rect x="0" y="400" width="1200" height="200" fill="#1e40af" opacity="0.3"/>
  
  <!-- Ground/grass area -->
  <ellipse cx="600" cy="550" rx="400" ry="50" fill="#16a34a" opacity="0.8"/>
  
  <!-- Yoga mat -->
  <rect x="450" y="480" width="120" height="60" rx="5" fill="#e5e7eb" opacity="0.9"/>
  
  <!-- Person 1 - Woman doing yoga pose (center) -->
  <g transform="translate(500,420)">
    <!-- Body -->
    <ellipse cx="0" cy="25" rx="15" ry="35" fill="#f59e0b"/>
    <!-- Head -->
    <circle cx="0" cy="-15" r="12" fill="#fbbf24"/>
    <!-- Arms extended -->
    <rect x="-40" y="10" width="80" height="8" rx="4" fill="#f59e0b"/>
    <!-- Legs in warrior pose -->
    <rect x="-12" y="50" width="8" height="25" rx="4" fill="#1f2937" transform="rotate(-20)"/>
    <rect x="4" y="50" width="8" height="25" rx="4" fill="#1f2937" transform="rotate(20)"/>
  </g>
  
  <!-- Person 2 - Man doing push-ups (left) -->
  <g transform="translate(350,480)">
    <!-- Body horizontal -->
    <rect x="-20" y="-5" width="40" height="12" rx="6" fill="#3b82f6"/>
    <!-- Head -->
    <circle cx="-25" cy="0" r="8" fill="#60a5fa"/>
    <!-- Arms supporting -->
    <rect x="-35" y="-8" width="12" height="6" rx="3" fill="#3b82f6"/>
    <rect x="-35" y="8" width="12" height="6" rx="3" fill="#3b82f6"/>
    <!-- Legs -->
    <rect x="15" y="-4" width="20" height="8" rx="4" fill="#1f2937"/>
  </g>
  
  <!-- Person 3 - Older man stretching (right) -->
  <g transform="translate(650,470)">
    <!-- Body -->
    <ellipse cx="0" cy="15" rx="12" ry="25" fill="#84cc16"/>
    <!-- Head -->
    <circle cx="0" cy="-12" r="10" fill="#a3e635"/>
    <!-- Arms -->
    <rect x="-25" y="5" width="50" height="6" rx="3" fill="#84cc16"/>
    <!-- Legs in lunge position -->
    <rect x="-8" y="35" width="6" height="20" rx="3" fill="#1f2937"/>
    <rect x="2" y="35" width="6" height="15" rx="3" fill="#1f2937" transform="rotate(45)"/>
  </g>
  
  <!-- Person 4 - Runner in background (smaller) -->
  <g transform="translate(150,400) scale(0.7)">
    <!-- Body -->
    <ellipse cx="0" cy="20" rx="8" ry="20" fill="#ef4444"/>
    <!-- Head -->
    <circle cx="0" cy="-5" r="7" fill="#f87171"/>
    <!-- Running arms -->
    <rect x="-15" y="10" width="30" height="5" rx="2" fill="#ef4444" transform="rotate(-15)"/>
    <!-- Running legs -->
    <rect x="-5" y="35" width="5" height="15" rx="2" fill="#1f2937" transform="rotate(-30)"/>
    <rect x="0" y="35" width="5" height="15" rx="2" fill="#1f2937" transform="rotate(15)"/>
  </g>
  
  <!-- Fitness props -->
  <!-- Water bottle -->
  <rect x="580" y="520" width="8" height="20" rx="4" fill="#06b6d4"/>
  <rect x="578" y="515" width="12" height="8" rx="2" fill="#67e8f9"/>
  
  <!-- Fruits/healthy snacks -->
  <circle cx="600" cy="530" r="6" fill="#f59e0b"/> <!-- Orange -->
  <ellipse cx="620" cy="532" rx="8" ry="5" fill="#eab308"/> <!-- Banana -->
  <circle cx="640" cy="528" r="5" fill="#dc2626"/> <!-- Apple -->
  
  <!-- Sun/light source -->
  <circle cx="1000" cy="150" r="40" fill="#fbbf24" opacity="0.8"/>
  <g transform="translate(1000,150)">
    <rect x="-60" y="-2" width="120" height="4" rx="2" fill="#fbbf24" opacity="0.6"/>
    <rect x="-2" y="-60" width="4" height="120" rx="2" fill="#fbbf24" opacity="0.6"/>
    <rect x="-42" y="-42" width="84" height="4" rx="2" fill="#fbbf24" opacity="0.4" transform="rotate(45)"/>
    <rect x="-42" y="-42" width="84" height="4" rx="2" fill="#fbbf24" opacity="0.4" transform="rotate(-45)"/>
  </g>
</svg>